<svg width="18" height="19" viewBox="0 0 18 19" fill="none" xmlns="http://www.w3.org/2000/svg">
<path d="M16.1479 15.8519L12.6273 12.3321C13.6477 11.1071 14.1566 9.53577 14.048 7.94512C13.9394 6.35447 13.2217 4.86692 12.0443 3.79193C10.8668 2.71693 9.32029 2.13725 7.72635 2.17348C6.13241 2.2097 4.6138 2.85904 3.48642 3.98642C2.35904 5.1138 1.7097 6.63241 1.67348 8.22635C1.63725 9.82029 2.21693 11.3668 3.29193 12.5443C4.36692 13.7217 5.85447 14.4394 7.44512 14.548C9.03577 14.6566 10.6071 14.1477 11.8321 13.1273L15.3519 16.6479C15.4042 16.7001 15.4663 16.7416 15.5345 16.7699C15.6028 16.7982 15.676 16.8127 15.7499 16.8127C15.8238 16.8127 15.897 16.7982 15.9653 16.7699C16.0336 16.7416 16.0956 16.7001 16.1479 16.6479C16.2001 16.5956 16.2416 16.5336 16.2699 16.4653C16.2982 16.397 16.3127 16.3238 16.3127 16.2499C16.3127 16.176 16.2982 16.1028 16.2699 16.0345C16.2416 15.9663 16.2001 15.9042 16.1479 15.8519ZM2.81242 8.37492C2.81242 7.37365 3.10933 6.39487 3.6656 5.56234C4.22188 4.72982 5.01253 4.08094 5.93758 3.69778C6.86263 3.31461 7.88053 3.21435 8.86256 3.40969C9.84459 3.60503 10.7466 4.08718 11.4546 4.79519C12.1626 5.50319 12.6448 6.40524 12.8401 7.38727C13.0355 8.3693 12.9352 9.3872 12.5521 10.3123C12.1689 11.2373 11.52 12.028 10.6875 12.5842C9.85497 13.1405 8.87618 13.4374 7.87492 13.4374C6.53271 13.4359 5.24591 12.9021 4.29683 11.953C3.34775 11.0039 2.81391 9.71712 2.81242 8.37492Z" fill="#989898"/>
</svg>
