<svg width="171" height="53" viewBox="0 0 171 53" fill="none" xmlns="http://www.w3.org/2000/svg">
<path d="M156.56 30.5059C154.79 33.6228 152.531 35.781 148.504 35.781C143.804 35.781 140.508 31.9465 140.508 26.4926V26.3734C140.508 21.3393 143.682 17.2042 148.504 17.2042C152.409 17.2042 154.668 19.3028 156.257 22.2979L169.734 14.5718C165.817 7.60227 158.919 2.71582 148.699 2.71582C134.832 2.71582 124.017 12.8774 124.017 26.4926V26.6221C124.017 40.7581 135.23 50.2694 148.103 50.2694C159.648 50.2694 166.15 44.7326 170.066 37.9574L156.563 30.5085L156.56 30.5059ZM105.313 2.80132H121.136V50.3108H105.313V2.80132Z" fill="#005493"/>
<path d="M76.6938 29.6097L84.468 50.2541L103.824 2.7627H86.2809L76.6938 29.6097Z" fill="#26A739"/>
<path d="M68.9595 50.2537H84.4682L76.6941 29.6094L68.9595 50.2537Z" fill="#F5AA1C"/>
<path d="M67.2946 2.75977H49.5771L68.9597 50.2537L76.6943 29.6094L67.2946 2.75977ZM32.0126 28.56C32.0126 34.203 28.97 36.4597 24.7108 36.4597C20.4517 36.4597 17.409 34.0035 17.409 28.2284V2.80122H1.31445V28.4279C1.31445 43.8309 10.4424 50.2045 24.5763 50.2045C38.7101 50.2045 48.1072 43.963 48.1072 28.0963V2.80122H32.0153V28.56H32.0126Z" fill="#005493"/>
</svg>
