<svg width="342" height="342" viewBox="0 0 342 342" fill="none" xmlns="http://www.w3.org/2000/svg">
<g clip-path="url(#clip0_156_700)">
<circle cx="171" cy="171" r="171" fill="#923A22"/>
<path d="M235.406 263.137C215.566 257.279 210.181 258.938 203.402 262.049C202.605 262.415 201.823 262.773 200.994 263.11C203.037 249.687 209.448 235.33 210.8 232.405C212.734 230.732 214.207 228.703 215.396 226.437C221.409 232.558 233.371 246.595 235.406 263.137ZM168.315 265.42C163.478 268.669 157.497 272.687 148.19 275.921C129.578 271.383 116.985 252.364 109.661 237.072C103.965 225.179 102.112 212.264 104.302 199.724C105.738 191.5 108.504 185.818 112.3 183.291C113.97 182.179 115.885 181.627 118.096 181.627C118.482 181.627 118.877 181.643 119.281 181.677C119.84 191.556 121.993 200.594 125.693 208.579C129.223 216.197 134.274 223.087 140.705 229.054C152.72 240.205 167.874 246.562 177.902 250.769C187.124 254.637 190.963 258.561 192.544 261.341C181.772 256.38 175.945 260.294 168.315 265.42ZM62.1122 178.829C59.4343 170.202 55.4848 149.248 76.5877 140.995C89.0002 136.141 97.3059 130.797 102.726 124.179C107.7 118.106 109.637 111.79 111.688 105.103C114.187 96.9573 116.77 88.5346 125.275 78.6857C134.014 68.5662 145.774 64.4397 160.23 66.421C171.389 67.9503 180.043 72.6994 180.125 72.7453C180.798 73.1211 181.577 73.2625 182.339 73.144C182.449 73.1274 193.441 71.4923 205.441 74.8604C221.171 79.2738 230.946 89.9271 234.495 106.525C239.073 127.934 243.298 140.415 248.621 148.257C253.857 155.97 259.755 158.663 267.515 161.626C276.59 165.091 284.855 180.508 281.204 192.898C276.621 208.455 255.088 213.587 221.891 207.166C222.704 204.761 223.654 202.287 224.833 199.805C226.784 200.145 228.841 200.392 231.004 200.512C232.912 200.617 234.551 199.152 234.658 197.236C234.764 195.321 233.301 193.682 231.389 193.575C230.154 193.506 228.963 193.385 227.808 193.229C233.34 179.251 232.162 168.659 231.49 162.65C231.418 162.005 231.352 161.421 231.305 160.901C231.222 159.985 231.732 158.753 232.378 157.194C234.172 152.86 236.865 146.357 231.3 135.087C230.977 123.17 228.778 112.853 224.76 104.414C221.401 97.3579 216.778 91.5966 211.021 87.29C201.147 79.9033 191.374 79.4038 190.963 79.3859C190.934 79.3847 190.905 79.3838 190.876 79.3832C190.409 79.3726 179.286 79.2246 167.293 83.1642C150.86 88.5623 140.826 99.0307 138.275 113.438C135.321 130.12 138.048 142.515 139.853 150.717C141.906 160.051 141.481 160.527 139.135 161.243C134.605 162.624 130.404 162.186 126.985 159.977C123.41 157.666 121.083 153.644 120.433 148.651C120.185 146.749 118.446 145.41 116.547 145.656C114.649 145.904 113.311 147.647 113.558 149.55C113.749 151.013 114.047 152.421 114.449 153.765C111.117 162.53 110.958 169.706 113.967 175.14C111.997 175.592 110.158 176.376 108.465 177.503C102.968 181.162 99.2699 188.235 97.4729 198.527C96.6783 203.077 96.3631 207.669 96.5137 212.25C84.9413 214.822 68.2627 198.644 62.1122 178.829ZM146.623 149.222C144.836 141.098 142.388 129.973 145.101 114.652C147.198 102.803 155.337 94.4481 169.29 89.8198C179.764 86.3452 189.841 86.3334 190.695 86.3289C191.353 86.3757 199.293 87.0575 207.169 93.08C218.194 101.511 223.987 115.959 224.387 136.024C224.398 136.556 224.53 137.078 224.774 137.551C229.341 146.4 227.63 150.533 225.975 154.531C225.084 156.682 224.163 158.906 224.401 161.53C224.452 162.093 224.522 162.725 224.6 163.424C225.218 168.945 226.316 178.787 220.927 191.739C210.66 188.643 204.966 182.86 204.899 182.791C204.234 182.091 203.303 181.716 202.342 181.714C201.377 181.727 200.461 182.143 199.814 182.861C199.684 183.006 186.617 197.361 173.727 198.745C171.823 198.949 170.445 200.661 170.649 202.569C170.84 204.351 172.343 205.673 174.092 205.673C174.215 205.673 174.34 205.666 174.465 205.653C186.474 204.363 197.771 194.64 202.568 189.973C205.473 192.29 210.677 195.777 217.974 198.118C215.655 203.288 214.241 208.227 212.974 212.653C209.9 223.399 208.044 228.624 199.539 229.956C192.884 230.998 181.262 229.144 168.603 220.818C158.918 214.447 145.565 202.118 136.952 179.563C136.437 178.214 135.146 177.331 133.715 177.331C133.665 177.331 133.614 177.332 133.564 177.334C131.653 177.418 127.869 177.344 124.608 175.853C124.344 175.669 124.053 175.52 123.739 175.413C122.517 174.731 121.406 173.82 120.548 172.601C118.817 170.141 118.357 166.657 119.16 162.337C120.354 163.67 121.715 164.838 123.228 165.816C128.339 169.119 134.706 169.855 141.154 167.889C145.287 166.628 147.6 163.983 148.026 160.027C148.347 157.058 147.586 153.6 146.623 149.222ZM195.752 254.09C192.384 250.442 187.311 247.184 180.579 244.36C160.166 235.797 129.742 223.026 126.377 183.685C127.95 184.025 129.616 184.231 131.361 184.289C140.654 207.159 154.59 219.91 164.799 226.626C175.005 233.339 186.484 237.168 195.919 237.168C197.549 237.167 199.119 237.053 200.609 236.82C200.89 236.776 201.159 236.724 201.431 236.673C199.598 241.285 197.385 247.49 195.752 254.09ZM219.846 213.844C239.561 217.744 255.481 217.845 267.195 214.135C280.851 209.809 285.967 201.268 287.853 194.865C290.011 187.541 289.096 178.798 285.343 170.878C281.764 163.324 276.022 157.439 269.983 155.134C257.342 150.308 250.378 147.649 241.273 105.069C236.128 81.0041 219.964 71.7204 207.31 68.1699C196.12 65.0303 185.858 65.7552 182.456 66.1286C179.657 64.7176 171.561 61.0007 161.396 59.5689C144.61 57.2037 130.306 62.2428 120.033 74.1393C110.572 85.0946 107.645 94.6396 105.061 103.061C101.148 115.82 98.3205 125.038 74.0675 134.523C64.2812 138.35 57.5721 145.171 54.6649 154.25C52.1923 161.971 52.4784 171.183 55.4923 180.892C61.5292 200.341 78.1264 219.483 93.9251 219.481C94.9889 219.481 96.0505 219.392 97.1042 219.212C98.0811 226.332 100.191 233.356 103.411 240.078C111.525 257.019 125.785 278.204 147.645 282.922C147.886 282.974 148.131 283 148.375 283C148.746 283 149.116 282.941 149.471 282.822C160.19 279.241 166.836 274.778 172.175 271.191C180.56 265.559 183.745 263.427 194.571 270.409C194.617 270.455 194.661 270.503 194.71 270.546C195.347 271.102 196.158 271.401 196.988 271.401C197.214 271.401 197.442 271.379 197.668 271.333C201.491 270.567 204.04 269.397 206.289 268.366C211.505 265.972 215.625 264.081 238.121 271.238C239.175 271.573 240.325 271.384 241.217 270.731C242.109 270.076 242.637 269.035 242.637 267.927C242.637 256.436 238.087 244.118 229.479 232.306C225.012 226.175 220.57 221.685 218.192 219.444C218.698 217.852 219.167 216.217 219.639 214.567C219.707 214.328 219.776 214.087 219.846 213.844Z" fill="white"/>
</g>
<defs>
<clipPath id="clip0_156_700">
<rect width="342" height="342" fill="white"/>
</clipPath>
</defs>
</svg>
