<svg width="589" height="110" viewBox="0 0 589 110" fill="none" xmlns="http://www.w3.org/2000/svg">
<mask id="mask0_54623_2616" style="mask-type:luminance" maskUnits="userSpaceOnUse" x="0" y="0" width="110" height="110">
<path d="M110 0H0V110H110V0Z" fill="white"/>
</mask>
<g mask="url(#mask0_54623_2616)">
<path d="M55 110C85.3757 110 110 85.3757 110 55C110 24.6243 85.3757 0 55 0C24.6243 0 0 24.6243 0 55C0 85.3757 24.6243 110 55 110Z" fill="#923A22"/>
<path d="M75.7155 84.6347C69.3343 82.7504 67.6022 83.2842 65.4219 84.2847C65.1653 84.4024 64.9141 84.5176 64.6473 84.6261C65.3044 80.3086 67.3665 75.691 67.8014 74.7501C68.4233 74.212 68.897 73.5595 69.2796 72.8306C71.2135 74.7993 75.0611 79.3143 75.7155 84.6347ZM54.1365 85.3689C52.5808 86.4139 50.6569 87.7064 47.6637 88.7463C41.6771 87.2869 37.6267 81.1695 35.2713 76.2513C33.4392 72.4259 32.8432 68.2721 33.5474 64.2387C34.0093 61.5936 34.899 59.7659 36.12 58.9531C36.6571 58.5957 37.2731 58.418 37.9843 58.418C38.1083 58.418 38.2354 58.4233 38.3653 58.4342C38.5452 61.6117 39.2375 64.5183 40.4276 67.0867C41.5631 69.5371 43.1877 71.7529 45.2561 73.6723C49.1206 77.2589 53.9946 79.3035 57.22 80.6566C60.1861 81.9008 61.4209 83.1627 61.9293 84.0571C58.4648 82.4615 56.5906 83.7203 54.1365 85.3689ZM19.9777 57.5179C19.1164 54.7434 17.8461 48.0037 24.6335 45.3493C28.6259 43.788 31.2973 42.0693 33.0406 39.9405C34.6403 37.9872 35.2635 35.9557 35.9232 33.8049C36.7268 31.1851 37.5578 28.476 40.2933 25.3082C43.104 22.0534 46.8865 20.7262 51.5362 21.3634C55.1251 21.8553 57.9086 23.3828 57.9351 23.3976C58.1516 23.5184 58.4022 23.5639 58.6473 23.5258C58.6825 23.5205 62.2179 22.9946 66.0777 24.0779C71.1369 25.4974 74.2808 28.9239 75.4223 34.2623C76.8948 41.1485 78.2537 45.1626 79.966 47.685C81.6501 50.1658 83.5471 51.032 86.043 51.985C88.9618 53.0993 91.62 58.0582 90.446 62.043C88.9717 67.0468 82.0458 68.6975 71.3686 66.6322C71.6302 65.8586 71.9355 65.0631 72.3148 64.2647C72.9425 64.3742 73.6039 64.4535 74.2997 64.4921C74.9132 64.526 75.4406 64.0545 75.4748 63.4385C75.509 62.8224 75.0383 62.2952 74.4235 62.2609C74.0263 62.2389 73.6433 62.1998 73.2716 62.1495C75.051 57.6538 74.672 54.2471 74.4559 52.3143C74.4327 52.1068 74.4116 51.919 74.3964 51.7516C74.3697 51.4571 74.5338 51.0609 74.7415 50.5593C75.3187 49.1655 76.1846 47.0737 74.3948 43.4491C74.2909 39.6159 73.5837 36.2976 72.2914 33.5834C71.2109 31.3139 69.7242 29.4608 67.8724 28.0757C64.6966 25.6999 61.5532 25.5392 61.421 25.5334C61.4117 25.533 61.4024 25.5327 61.393 25.5326C61.2429 25.5292 57.6651 25.4815 53.8079 26.7487C48.5223 28.4849 45.2948 31.8519 44.4744 36.486C43.5245 41.8514 44.4016 45.8382 44.982 48.4763C45.6424 51.4782 45.5057 51.6315 44.7512 51.8616C43.2941 52.306 41.9428 52.1651 40.8434 51.4546C39.6932 50.7112 38.9448 49.4175 38.7358 47.8118C38.6562 47.1999 38.0968 46.7693 37.486 46.8484C36.8754 46.9282 36.4451 47.4888 36.5247 48.1007C36.586 48.5713 36.682 49.0243 36.8111 49.4564C35.7394 52.2758 35.6882 54.5837 36.6562 56.3314C36.0226 56.4769 35.4311 56.7292 34.8863 57.0917C33.1185 58.2683 31.929 60.5434 31.351 63.8535C31.0955 65.3172 30.9941 66.7942 31.0425 68.2675C27.3204 69.0949 21.9559 63.8914 19.9777 57.5179ZM47.1596 47.9952C46.5846 45.3825 45.7974 41.8043 46.67 36.8763C47.3446 33.0652 49.9623 30.378 54.4502 28.8894C57.8191 27.7718 61.0599 27.768 61.3347 27.7665C61.5463 27.7816 64.1002 28.0009 66.6333 29.938C70.1793 32.6496 72.0427 37.2967 72.1714 43.7504C72.1748 43.9215 72.2174 44.0895 72.2958 44.2414C73.7649 47.0877 73.2144 48.4171 72.682 49.7028C72.3955 50.3948 72.0993 51.11 72.1758 51.9539C72.1923 52.1352 72.2149 52.3384 72.24 52.5631C72.4385 54.3389 72.7919 57.5046 71.0585 61.6702C67.7561 60.6746 65.9247 58.8145 65.9033 58.7924C65.6893 58.5672 65.3901 58.4465 65.0809 58.446C64.7706 58.4502 64.4758 58.5841 64.2679 58.8149C64.2259 58.8615 60.0232 63.4786 55.8771 63.9238C55.2648 63.9894 54.8217 64.5401 54.8873 65.1538C54.9486 65.7268 55.4321 66.152 55.9945 66.152C56.0342 66.152 56.0744 66.15 56.1147 66.1456C59.9771 65.7309 63.6107 62.6034 65.1534 61.1025C66.0878 61.8476 67.7618 62.9692 70.1087 63.722C69.3628 65.3849 68.9079 66.9735 68.5006 68.397C67.5117 71.8535 66.915 73.5339 64.1794 73.9623C62.0387 74.2975 58.3007 73.7013 54.2292 71.0232C51.1142 68.974 46.8193 65.0086 44.0489 57.7542C43.8832 57.3204 43.4679 57.0362 43.0079 57.0362C42.9917 57.0362 42.9754 57.0366 42.9592 57.0373C42.3446 57.0641 41.1274 57.0405 40.0785 56.5609C39.9937 56.5018 39.9001 56.4537 39.7992 56.4195C39.4063 56.2001 39.0488 55.9069 38.7728 55.5149C38.2159 54.7237 38.068 53.6029 38.3265 52.2137C38.7104 52.6423 39.1481 53.018 39.6348 53.3325C41.2788 54.3949 43.3265 54.6317 45.4004 53.9994C46.7299 53.5939 47.4737 52.7431 47.6109 51.4707C47.714 50.5157 47.4693 49.4034 47.1596 47.9952ZM62.9611 81.7248C61.878 80.5515 60.2463 79.5036 58.0809 78.5952C51.5155 75.8411 41.73 71.7336 40.6477 59.0798C41.1537 59.1892 41.6894 59.2556 42.2506 59.2743C45.2396 66.6299 49.722 70.7312 53.0057 72.8912C56.2881 75.0505 59.9802 76.282 63.015 76.2819C63.5392 76.2819 64.0441 76.2451 64.5235 76.17C64.6139 76.1559 64.7005 76.1391 64.7878 76.1228C64.1984 77.6061 63.4865 79.6022 62.9611 81.7248ZM70.7107 68.7803C77.0519 70.0345 82.1724 70.0671 85.9401 68.8737C90.3324 67.4825 91.9777 64.7353 92.5844 62.6758C93.2785 60.3202 92.9842 57.508 91.7771 54.9606C90.6259 52.5312 88.779 50.6381 86.8368 49.8967C82.7708 48.3445 80.5311 47.4893 77.6027 33.7941C75.9476 26.0539 70.7487 23.0679 66.6789 21.926C63.0795 20.9161 59.7791 21.1493 58.6848 21.2694C57.7844 20.8156 55.1804 19.6201 51.9112 19.1595C46.512 18.3988 41.9113 20.0196 38.6072 23.8459C35.5643 27.3696 34.6226 30.4396 33.7918 33.1483C32.533 37.2519 31.6236 40.2169 23.823 43.2676C20.6753 44.4985 18.5174 46.6925 17.5824 49.6125C16.7871 52.0958 16.8791 55.0589 17.8485 58.1817C19.7902 64.4371 25.1285 70.594 30.2099 70.5931C30.5521 70.5931 30.8935 70.5645 31.2325 70.5068C31.5467 72.7968 32.2254 75.0559 33.261 77.2181C35.8706 82.6669 40.4571 89.4807 47.4883 90.9983C47.5658 91.015 47.6445 91.0233 47.7231 91.0233C47.8424 91.0233 47.9615 91.0042 48.0756 90.966C51.5233 89.8144 53.6606 88.3787 55.378 87.2252C58.0748 85.4136 59.0993 84.7279 62.5813 86.9736C62.5962 86.9883 62.6103 87.0037 62.6262 87.0176C62.831 87.1966 63.0918 87.2927 63.3587 87.2927C63.4315 87.2927 63.5047 87.2856 63.5774 87.2709C64.8071 87.0245 65.6269 86.6482 66.3502 86.3164C68.0279 85.5464 69.353 84.9383 76.5888 87.2403C76.9276 87.348 77.2976 87.2873 77.5845 87.0771C77.8714 86.8667 78.0411 86.5318 78.0411 86.1754C78.0411 82.4793 76.5776 78.5175 73.8092 74.7181C72.3723 72.7464 70.9438 71.3021 70.1789 70.5813C70.3416 70.0693 70.4923 69.5435 70.6441 69.0129C70.6661 68.9359 70.6884 68.8582 70.7107 68.7803Z" fill="white"/>
</g>
<path d="M143.035 47H128.234V21.3008H143.035V25.7656H133.684V31.4082H142.385V35.873H133.684V42.5H143.035V47ZM164.146 47L162.283 40.8828H152.914L151.051 47H145.18L154.25 21.1953H160.912L170.018 47H164.146ZM160.982 36.3125L159.119 30.3359C159.002 29.9375 158.844 29.4277 158.645 28.8066C158.457 28.1738 158.264 27.5352 158.064 26.8906C157.877 26.2344 157.725 25.666 157.607 25.1855C157.49 25.666 157.326 26.2637 157.115 26.9785C156.916 27.6816 156.723 28.3496 156.535 28.9824C156.348 29.6152 156.213 30.0664 156.131 30.3359L154.285 36.3125H160.982ZM180.758 21.3008C183.09 21.3008 185.012 21.582 186.523 22.1445C188.047 22.707 189.178 23.5566 189.916 24.6934C190.654 25.8301 191.023 27.2656 191.023 29C191.023 30.1719 190.801 31.1973 190.355 32.0762C189.91 32.9551 189.324 33.6992 188.598 34.3086C187.871 34.918 187.086 35.416 186.242 35.8027L193.801 47H187.754L181.619 37.1387H178.719V47H173.27V21.3008H180.758ZM180.371 25.7656H178.719V32.709H180.477C182.281 32.709 183.57 32.4102 184.344 31.8125C185.129 31.2031 185.521 30.3125 185.521 29.1406C185.521 27.9219 185.1 27.0547 184.256 26.5391C183.424 26.0234 182.129 25.7656 180.371 25.7656ZM197.035 47V21.3008H202.484V42.5H212.908V47H197.035ZM225.389 31.8828L230.75 21.3008H236.621L228.096 36.998V47H222.682V37.1738L214.156 21.3008H220.062L225.389 31.8828ZM260.088 47L253.9 26.8379H253.742C253.766 27.3184 253.801 28.0449 253.848 29.0176C253.906 29.9785 253.959 31.0039 254.006 32.0938C254.053 33.1836 254.076 34.168 254.076 35.0469V47H249.207V21.3008H256.625L262.707 40.9531H262.812L269.264 21.3008H276.682V47H271.602V34.8359C271.602 34.0273 271.613 33.0957 271.637 32.041C271.672 30.9863 271.713 29.9844 271.76 29.0352C271.807 28.0742 271.842 27.3535 271.865 26.873H271.707L265.08 47H260.088ZM306.494 34.1152C306.494 36.0957 306.248 37.9004 305.756 39.5293C305.264 41.1465 304.514 42.541 303.506 43.7129C302.51 44.8848 301.244 45.7871 299.709 46.4199C298.174 47.041 296.357 47.3516 294.26 47.3516C292.162 47.3516 290.346 47.041 288.811 46.4199C287.275 45.7871 286.004 44.8848 284.996 43.7129C284 42.541 283.256 41.1406 282.764 39.5117C282.271 37.8828 282.025 36.0723 282.025 34.0801C282.025 31.4199 282.459 29.1055 283.326 27.1367C284.205 25.1562 285.553 23.6211 287.369 22.5312C289.186 21.4414 291.494 20.8965 294.295 20.8965C297.084 20.8965 299.375 21.4414 301.168 22.5312C302.973 23.6211 304.309 25.1562 305.176 27.1367C306.055 29.1172 306.494 31.4434 306.494 34.1152ZM287.738 34.1152C287.738 35.9082 287.961 37.4551 288.406 38.7559C288.863 40.0449 289.572 41.041 290.533 41.7441C291.494 42.4355 292.736 42.7812 294.26 42.7812C295.807 42.7812 297.061 42.4355 298.021 41.7441C298.982 41.041 299.68 40.0449 300.113 38.7559C300.559 37.4551 300.781 35.9082 300.781 34.1152C300.781 31.4199 300.277 29.2988 299.27 27.752C298.262 26.2051 296.604 25.4316 294.295 25.4316C292.76 25.4316 291.506 25.7832 290.533 26.4863C289.572 27.1777 288.863 28.1738 288.406 29.4746C287.961 30.7637 287.738 32.3105 287.738 34.1152ZM333.143 33.9043C333.143 36.7988 332.586 39.2188 331.473 41.1641C330.371 43.0977 328.771 44.5566 326.674 45.541C324.576 46.5137 322.051 47 319.098 47H311.82V21.3008H319.889C322.584 21.3008 324.922 21.7812 326.902 22.7422C328.883 23.6914 330.418 25.1035 331.508 26.9785C332.598 28.8418 333.143 31.1504 333.143 33.9043ZM327.482 34.0449C327.482 32.1465 327.201 30.5879 326.639 29.3691C326.088 28.1387 325.268 27.2305 324.178 26.6445C323.1 26.0586 321.764 25.7656 320.17 25.7656H317.27V42.5H319.607C322.268 42.5 324.242 41.791 325.531 40.373C326.832 38.9551 327.482 36.8457 327.482 34.0449ZM353.27 47H338.469V21.3008H353.27V25.7656H343.918V31.4082H352.619V35.873H343.918V42.5H353.27V47ZM366.137 21.3008C368.469 21.3008 370.391 21.582 371.902 22.1445C373.426 22.707 374.557 23.5566 375.295 24.6934C376.033 25.8301 376.402 27.2656 376.402 29C376.402 30.1719 376.18 31.1973 375.734 32.0762C375.289 32.9551 374.703 33.6992 373.977 34.3086C373.25 34.918 372.465 35.416 371.621 35.8027L379.18 47H373.133L366.998 37.1387H364.098V47H358.648V21.3008H366.137ZM365.75 25.7656H364.098V32.709H365.855C367.66 32.709 368.949 32.4102 369.723 31.8125C370.508 31.2031 370.9 30.3125 370.9 29.1406C370.9 27.9219 370.479 27.0547 369.635 26.5391C368.803 26.0234 367.508 25.7656 365.75 25.7656ZM405.213 47H398.287L387.107 27.5586H386.949C386.996 28.3672 387.037 29.1816 387.072 30.002C387.107 30.8223 387.143 31.6426 387.178 32.4629C387.213 33.2715 387.248 34.0859 387.283 34.9062V47H382.414V21.3008H389.287L400.449 40.5488H400.572C400.549 39.752 400.52 38.9609 400.484 38.1758C400.449 37.3906 400.414 36.6055 400.379 35.8203C400.355 35.0352 400.332 34.25 400.309 33.4648V21.3008H405.213V47ZM143.035 93H128.234V67.3008H143.035V71.7656H133.684V77.4082H142.385V81.873H133.684V88.5H143.035V93ZM171.213 93H164.287L153.107 73.5586H152.949C152.996 74.3672 153.037 75.1816 153.072 76.002C153.107 76.8223 153.143 77.6426 153.178 78.4629C153.213 79.2715 153.248 80.0859 153.283 80.9062V93H148.414V67.3008H155.287L166.449 86.5488H166.572C166.549 85.752 166.52 84.9609 166.484 84.1758C166.449 83.3906 166.414 82.6055 166.379 81.8203C166.355 81.0352 166.332 80.25 166.309 79.4648V67.3008H171.213V93ZM187.455 78.5684H197.65V91.8926C196.303 92.3379 194.902 92.6953 193.449 92.9648C191.996 93.2227 190.35 93.3516 188.51 93.3516C185.955 93.3516 183.787 92.8477 182.006 91.8398C180.225 90.832 178.871 89.3438 177.945 87.375C177.02 85.4062 176.557 82.9863 176.557 80.1152C176.557 77.4199 177.072 75.0879 178.104 73.1191C179.146 71.1504 180.664 69.627 182.656 68.5488C184.66 67.4707 187.104 66.9316 189.986 66.9316C191.346 66.9316 192.688 67.0781 194.012 67.3711C195.336 67.6641 196.537 68.0449 197.615 68.5137L195.805 72.873C195.02 72.4746 194.123 72.1406 193.115 71.8711C192.107 71.6016 191.053 71.4668 189.951 71.4668C188.369 71.4668 186.992 71.8301 185.82 72.5566C184.66 73.2832 183.758 74.3027 183.113 75.6152C182.48 76.916 182.164 78.4512 182.164 80.2207C182.164 81.8965 182.393 83.3848 182.85 84.6855C183.307 85.9746 184.027 86.9883 185.012 87.7266C185.996 88.4531 187.279 88.8164 188.861 88.8164C189.635 88.8164 190.285 88.7812 190.812 88.7109C191.352 88.6289 191.855 88.5469 192.324 88.4648V83.1035H187.455V78.5684ZM203.785 93V67.3008H209.234V88.5H219.658V93H203.785ZM239.873 93L238.01 86.8828H228.641L226.777 93H220.906L229.977 67.1953H236.639L245.744 93H239.873ZM236.709 82.3125L234.846 76.3359C234.729 75.9375 234.57 75.4277 234.371 74.8066C234.184 74.1738 233.99 73.5352 233.791 72.8906C233.604 72.2344 233.451 71.666 233.334 71.1855C233.217 71.666 233.053 72.2637 232.842 72.9785C232.643 73.6816 232.449 74.3496 232.262 74.9824C232.074 75.6152 231.939 76.0664 231.857 76.3359L230.012 82.3125H236.709ZM271.795 93H264.869L253.689 73.5586H253.531C253.578 74.3672 253.619 75.1816 253.654 76.002C253.689 76.8223 253.725 77.6426 253.76 78.4629C253.795 79.2715 253.83 80.0859 253.865 80.9062V93H248.996V67.3008H255.869L267.031 86.5488H267.154C267.131 85.752 267.102 84.9609 267.066 84.1758C267.031 83.3906 266.996 82.6055 266.961 81.8203C266.938 81.0352 266.914 80.25 266.891 79.4648V67.3008H271.795V93ZM299.604 79.9043C299.604 82.7988 299.047 85.2188 297.934 87.1641C296.832 89.0977 295.232 90.5566 293.135 91.541C291.037 92.5137 288.512 93 285.559 93H278.281V67.3008H286.35C289.045 67.3008 291.383 67.7812 293.363 68.7422C295.344 69.6914 296.879 71.1035 297.969 72.9785C299.059 74.8418 299.604 77.1504 299.604 79.9043ZM293.943 80.0449C293.943 78.1465 293.662 76.5879 293.1 75.3691C292.549 74.1387 291.729 73.2305 290.639 72.6445C289.561 72.0586 288.225 71.7656 286.631 71.7656H283.73V88.5H286.068C288.729 88.5 290.703 87.791 291.992 86.373C293.293 84.9551 293.943 82.8457 293.943 80.0449ZM329.082 93H314.281V67.3008H329.082V71.7656H319.73V77.4082H328.432V81.873H319.73V88.5H329.082V93ZM357.26 93H350.334L339.154 73.5586H338.996C339.043 74.3672 339.084 75.1816 339.119 76.002C339.154 76.8223 339.189 77.6426 339.225 78.4629C339.26 79.2715 339.295 80.0859 339.33 80.9062V93H334.461V67.3008H341.334L352.496 86.5488H352.619C352.596 85.752 352.566 84.9609 352.531 84.1758C352.496 83.3906 352.461 82.6055 352.426 81.8203C352.402 81.0352 352.379 80.25 352.355 79.4648V67.3008H357.26V93ZM374.662 71.4668C373.619 71.4668 372.693 71.6719 371.885 72.082C371.088 72.4805 370.414 73.0605 369.863 73.8223C369.324 74.584 368.914 75.5039 368.633 76.582C368.352 77.6602 368.211 78.873 368.211 80.2207C368.211 82.0371 368.434 83.5898 368.879 84.8789C369.336 86.1562 370.039 87.1348 370.988 87.8145C371.938 88.4824 373.162 88.8164 374.662 88.8164C375.705 88.8164 376.748 88.6992 377.791 88.4648C378.846 88.2305 379.988 87.8965 381.219 87.4629V92.0332C380.082 92.502 378.963 92.8359 377.861 93.0352C376.76 93.2461 375.523 93.3516 374.152 93.3516C371.504 93.3516 369.324 92.8066 367.613 91.7168C365.914 90.6152 364.654 89.0801 363.834 87.1113C363.014 85.1309 362.604 82.8223 362.604 80.1855C362.604 78.2402 362.867 76.459 363.395 74.8418C363.922 73.2246 364.695 71.8242 365.715 70.6406C366.734 69.457 367.994 68.543 369.494 67.8984C370.994 67.2539 372.717 66.9316 374.662 66.9316C375.939 66.9316 377.217 67.0957 378.494 67.4238C379.783 67.7402 381.014 68.1797 382.186 68.7422L380.428 73.1719C379.467 72.7148 378.5 72.3164 377.527 71.9766C376.555 71.6367 375.6 71.4668 374.662 71.4668ZM394.701 77.8828L400.062 67.3008H405.934L397.408 82.998V93H391.994V83.1738L383.469 67.3008H389.375L394.701 77.8828ZM420.084 71.4668C419.041 71.4668 418.115 71.6719 417.307 72.082C416.51 72.4805 415.836 73.0605 415.285 73.8223C414.746 74.584 414.336 75.5039 414.055 76.582C413.773 77.6602 413.633 78.873 413.633 80.2207C413.633 82.0371 413.855 83.5898 414.301 84.8789C414.758 86.1562 415.461 87.1348 416.41 87.8145C417.359 88.4824 418.584 88.8164 420.084 88.8164C421.127 88.8164 422.17 88.6992 423.213 88.4648C424.268 88.2305 425.41 87.8965 426.641 87.4629V92.0332C425.504 92.502 424.385 92.8359 423.283 93.0352C422.182 93.2461 420.945 93.3516 419.574 93.3516C416.926 93.3516 414.746 92.8066 413.035 91.7168C411.336 90.6152 410.076 89.0801 409.256 87.1113C408.436 85.1309 408.025 82.8223 408.025 80.1855C408.025 78.2402 408.289 76.459 408.816 74.8418C409.344 73.2246 410.117 71.8242 411.137 70.6406C412.156 69.457 413.416 68.543 414.916 67.8984C416.416 67.2539 418.139 66.9316 420.084 66.9316C421.361 66.9316 422.639 67.0957 423.916 67.4238C425.205 67.7402 426.436 68.1797 427.607 68.7422L425.85 73.1719C424.889 72.7148 423.922 72.3164 422.949 71.9766C421.977 71.6367 421.021 71.4668 420.084 71.4668ZM432.125 93V67.3008H437.574V88.5H447.998V93H432.125ZM475.807 80.1152C475.807 82.0957 475.561 83.9004 475.068 85.5293C474.576 87.1465 473.826 88.541 472.818 89.7129C471.822 90.8848 470.557 91.7871 469.021 92.4199C467.486 93.041 465.67 93.3516 463.572 93.3516C461.475 93.3516 459.658 93.041 458.123 92.4199C456.588 91.7871 455.316 90.8848 454.309 89.7129C453.312 88.541 452.568 87.1406 452.076 85.5117C451.584 83.8828 451.338 82.0723 451.338 80.0801C451.338 77.4199 451.771 75.1055 452.639 73.1367C453.518 71.1562 454.865 69.6211 456.682 68.5312C458.498 67.4414 460.807 66.8965 463.607 66.8965C466.396 66.8965 468.688 67.4414 470.48 68.5312C472.285 69.6211 473.621 71.1562 474.488 73.1367C475.367 75.1172 475.807 77.4434 475.807 80.1152ZM457.051 80.1152C457.051 81.9082 457.273 83.4551 457.719 84.7559C458.176 86.0449 458.885 87.041 459.846 87.7441C460.807 88.4355 462.049 88.7812 463.572 88.7812C465.119 88.7812 466.373 88.4355 467.334 87.7441C468.295 87.041 468.992 86.0449 469.426 84.7559C469.871 83.4551 470.094 81.9082 470.094 80.1152C470.094 77.4199 469.59 75.2988 468.582 73.752C467.574 72.2051 465.916 71.4316 463.607 71.4316C462.072 71.4316 460.818 71.7832 459.846 72.4863C458.885 73.1777 458.176 74.1738 457.719 75.4746C457.273 76.7637 457.051 78.3105 457.051 80.1152ZM489.342 67.3008C492.658 67.3008 495.078 68.0156 496.602 69.4453C498.125 70.8633 498.887 72.8203 498.887 75.3164C498.887 76.4414 498.717 77.5195 498.377 78.5508C498.037 79.5703 497.48 80.4785 496.707 81.2754C495.945 82.0723 494.926 82.7051 493.648 83.1738C492.371 83.6309 490.795 83.8594 488.92 83.8594H486.582V93H481.133V67.3008H489.342ZM489.061 71.7656H486.582V79.3945H488.375C489.395 79.3945 490.279 79.2598 491.029 78.9902C491.779 78.7207 492.359 78.2988 492.77 77.7246C493.18 77.1504 493.385 76.4121 493.385 75.5098C493.385 74.2441 493.033 73.3066 492.33 72.6973C491.627 72.0762 490.537 71.7656 489.061 71.7656ZM518.539 93H503.738V67.3008H518.539V71.7656H509.188V77.4082H517.889V81.873H509.188V88.5H518.539V93ZM545.24 79.9043C545.24 82.7988 544.684 85.2188 543.57 87.1641C542.469 89.0977 540.869 90.5566 538.771 91.541C536.674 92.5137 534.148 93 531.195 93H523.918V67.3008H531.986C534.682 67.3008 537.02 67.7812 539 68.7422C540.98 69.6914 542.516 71.1035 543.605 72.9785C544.695 74.8418 545.24 77.1504 545.24 79.9043ZM539.58 80.0449C539.58 78.1465 539.299 76.5879 538.736 75.3691C538.186 74.1387 537.365 73.2305 536.275 72.6445C535.197 72.0586 533.861 71.7656 532.268 71.7656H529.367V88.5H531.705C534.365 88.5 536.34 87.791 537.629 86.373C538.93 84.9551 539.58 82.8457 539.58 80.0449ZM550.566 93V67.3008H556.016V93H550.566ZM578.217 93L576.354 86.8828H566.984L565.121 93H559.25L568.32 67.1953H574.982L584.088 93H578.217ZM575.053 82.3125L573.189 76.3359C573.072 75.9375 572.914 75.4277 572.715 74.8066C572.527 74.1738 572.334 73.5352 572.135 72.8906C571.947 72.2344 571.795 71.666 571.678 71.1855C571.561 71.666 571.396 72.2637 571.186 72.9785C570.986 73.6816 570.793 74.3496 570.605 74.9824C570.418 75.6152 570.283 76.0664 570.201 76.3359L568.355 82.3125H575.053Z" fill="#2C4243"/>
</svg>
